<?xml version="1.0" encoding="utf-8"?>
<!-- Generator: Adobe Illustrator 21.0.0, SVG Export Plug-In . SVG Version: 6.00 Build 0)  -->
<svg version="1.1" id="Layer_1" xmlns="http://www.w3.org/2000/svg" xmlns:xlink="http://www.w3.org/1999/xlink" x="0px" y="0px"
	 viewBox="0 0 107.5 30" style="enable-background:new 0 0 107.5 30;" xml:space="preserve">
<style type="text/css">
	.st0{fill:#A0A0A0;}
	.st1{fill:#7F7F7F;}
	.st2{fill:#3A3A3A;}
</style>
<title>logo</title>
<g>
	<polygon class="st0" points="20.3,4.9 19.6,6.2 24.8,14.9 24.1,16 19,7.3 18.2,8.6 23.4,17.3 22.8,18.5 17.6,9.7 16.9,11 
		22.1,19.7 21.4,20.9 16.3,12.1 15.6,13.3 20.7,22 20.1,23.2 14.9,14.5 14.2,15.7 19.5,24.4 9.7,24.4 9.7,25.7 20.3,25.7 26.3,15.1 
			"/>
	<polygon class="st1" points="18.4,4.5 17.9,5.4 17.7,5 16.9,6.3 17.2,6.7 16.6,7.8 16.4,7.4 15.6,8.7 15.8,9.1 15.2,10.2 15,9.8 
		14.2,11.1 14.5,11.5 13.9,12.5 13.7,12.1 12.9,13.4 13.2,13.8 7.8,23.3 7.1,22.1 17.1,4.5 15.8,4.5 15.2,5.5 15,5.1 14.2,6.4 
		14.5,6.8 13.9,7.9 13.6,7.5 12.9,8.7 13.1,9.2 12.6,10.2 12.3,9.8 11.5,11.1 11.8,11.5 6.4,21 5.7,19.8 14.4,4.4 13.1,4.4 
		12.4,5.5 12.3,5.2 11.5,6.5 11.7,6.8 11.1,7.8 10.9,7.5 10.2,8.7 10.4,9.1 5.1,18.6 4.4,17.4 11.8,4.4 10.4,4.4 9.7,5.5 9.5,5.1 
		8.8,6.3 9,6.7 3.6,16.2 2.9,15.1 9.2,4.4 7.6,4.3 1.5,15.1 7.8,25.7 19.9,4.5 	"/>
</g>
<g>
	<path class="st2" d="M34.5,21.9l-1.3-8.1v9.4h-1.8V6.8h2.1l1.5,9l1.5-9h2.1v16.4h-1.8v-9.4l-1.3,8.1H34.5z"/>
	<path class="st2" d="M41.9,17.9h1.8v3.7h1V6.8h1.8v14.9c0,0.9-0.6,1.5-1.5,1.5h-1.5c-0.9,0-1.5-0.6-1.5-1.5V17.9z"/>
	<path class="st2" d="M59.2,21.7c0,0.9-0.6,1.5-1.5,1.5H56c-0.9,0-1.6-0.6-1.6-1.5V8.3c0-0.9,0.6-1.5,1.6-1.5h1.6
		c0.9,0,1.5,0.6,1.5,1.5v3.8h-1.8V8.4h-1.1v13.2h1.1v-5.8h-0.4v-1.6h2.2V21.7z"/>
	<path class="st2" d="M65.8,6.8c0.8,0,1.5,0.7,1.5,1.4v5.5c0,0.5-0.1,1.2-1,1.3c0.9,0.1,1,0.7,1,1.2v7h-1.8v-7.4h-1.1v7.4h-1.8V6.8
		H65.8z M65.5,14.2V8.4h-1.1v5.8H65.5z"/>
	<path class="st2" d="M70.7,8.3c0-0.8,0.7-1.5,1.5-1.5h1.7c0.8,0,1.5,0.7,1.5,1.5v15h-1.8v-7.4h-1.1v7.4h-1.8V8.3z M73.5,8.4h-1.1
		v5.8h1.1V8.4z"/>
	<path class="st2" d="M80.4,6.8l1.7,8.3V6.8h1.8v16.4h-1.6l-1.7-8.5v8.5h-1.8V6.8H80.4z"/>
	<path class="st2" d="M87.5,6.8h1.8v16.4h-1.8V6.8z"/>
	<path class="st2" d="M97.1,6.8v1.6h-1.3v14.8h-1.9V8.4h-1.3V6.8H97.1z"/>
	<path class="st2" d="M100.2,23.2V6.8h3.7v1.6h-2v5.8h1.6v1.6H102v5.8h2v1.6H100.2z"/>
</g>
</svg>
