<svg xmlns="http://www.w3.org/2000/svg" width="116.059" height="82.296" viewBox="0 0 116.059 82.296">
  <g id="logo" transform="translate(0 691.409)">
    <path id="Caminho_156" data-name="Caminho 156" d="M235.567-632.734l6.789-3.4c-.956-1.811-1.863-3.538-2.777-5.262q-8.669-16.349-17.323-32.708a1.487,1.487,0,0,1-.088-1.179c2.707-5.229,5.457-10.436,8.2-15.646.057-.107.14-.2.342-.485l32.343,61.444c-.359.039-.612.089-.864.089q-10.237.006-20.473,0a1.732,1.732,0,0,1-.738-.065C239.238-630.817,237.513-631.723,235.567-632.734Zm-16.012-37.645c1.407,2.637,2.71,5.079,4.011,7.522,1.45,2.723,2.882,5.455,4.356,8.165a1.431,1.431,0,0,1,.014,1.546c-2.8,5.254-5.555,10.527-8.329,15.793-.643,1.221-.652,1.219.525,1.841q4.71,2.49,9.421,4.979c.267.141.526.3,1.017.58H198.279Zm11.11,20.844,6.092,11.559c-.58.3-1.116.587-1.658.859-1.279.643-2.553,1.3-3.848,1.9a1.28,1.28,0,0,1-.945.092c-1.882-.887-3.737-1.828-5.737-2.82Z" transform="translate(-172.469 0)"/>
    <path id="Caminho_157" data-name="Caminho 157" d="M33.028-152.628a3.686,3.686,0,0,0,2.056,3.179,3.857,3.857,0,0,0,3.98-.393c.368-.237.664-.922,1.2-.386a2.445,2.445,0,0,1-.753,1.141,4.705,4.705,0,0,1-5.725-.08,5.243,5.243,0,0,1-1.323-6.124,4.328,4.328,0,0,1,4.764-2.63,4.395,4.395,0,0,1,3.487,4.631c-.035.231-.536.551-.827.558-2.021.049-4.044.023-6.066.029C33.58-152.7,33.34-152.66,33.028-152.628ZM78.385-149.5a13.344,13.344,0,0,1-2.734,1.254,3.471,3.471,0,0,1-4.309-3.367c-.092-1.832-.046-3.672-.017-5.509,0-.232.279-.46.428-.689.165.254.465.5.473.762.045,1.556.018,3.113.025,4.669.009,2.1,1.025,3.281,2.836,3.313a3.144,3.144,0,0,0,3.306-3.283c.044-1.493-.017-2.989.03-4.482a3.023,3.023,0,0,1,.421-.985c.162.315.459.628.464.946q.058,3.781,0,7.564c0,.317-.3.63-.458.945-.149-.292-.309-.578-.441-.878A.574.574,0,0,1,78.385-149.5Zm10.908-.315a4.625,4.625,0,0,1-4.658,1.5,2.905,2.905,0,0,1-2.513-2.829,2.78,2.78,0,0,1,2.538-2.876,21.9,21.9,0,0,1,3.617-.032,6.053,6.053,0,0,1,.9.144c.228-1.606-.559-2.874-2.073-3a17.726,17.726,0,0,0-3.2.344,4.963,4.963,0,0,1-.9-.068c.2-.252.355-.622.618-.737a6.1,6.1,0,0,1,4.014-.378,2.959,2.959,0,0,1,2.5,2.875c.113,1.955.066,3.921.049,5.882,0,.209-.267.415-.41.623a3.985,3.985,0,0,1-.469-.652A2.638,2.638,0,0,1,89.292-149.819Zm13.237-7.105c0,2.238-.029,4.32.014,6.4a1.388,1.388,0,0,0,1.413,1.356c.391.045.8-.089,1.2-.074a1.934,1.934,0,0,1,.613.253c-.127.185-.216.477-.387.538-1.49.536-3.8.162-3.809-2.3-.008-1.682,0-3.363,0-5.045,0-.336,0-.671,0-.84l-1.393-.747,1.394-.663c0-.507-.043-1.186.02-1.855a2.955,2.955,0,0,1,.411-.888,3.007,3.007,0,0,1,.49.932,18.077,18.077,0,0,1,.023,2.083c.917,0,1.749-.032,2.576.02.239.015.463.271.694.416-.238.135-.47.372-.716.387C104.266-156.893,103.46-156.924,102.529-156.924Zm-35.838,6.641a10.931,10.931,0,0,1,1.241,1.081c.174.2.156.567.225.859-.3-.032-.661.033-.885-.115a11.635,11.635,0,0,1-1.252-1.076c-4.428,2.081-7.558,1.561-9.581-1.562a7,7,0,0,1,1.23-8.861,6.578,6.578,0,0,1,8.426.025A7.068,7.068,0,0,1,66.691-150.282Zm-14.605-2.684c0,1.273.024,2.547-.021,3.818-.009.264-.278.519-.427.777-.168-.249-.48-.5-.483-.749q-.053-3.958,0-7.917c0-.264.294-.524.451-.786.16.284.449.562.46.851C52.114-155.637,52.086-154.3,52.086-152.966ZM16-156.36c2.206-2.432,4.844-1.926,6.322.258.119-.176.21-.337.326-.478a3.7,3.7,0,0,1,4.12-1.241,3.219,3.219,0,0,1,2.412,3.206c.1,1.863.056,3.736.027,5.6,0,.215-.313.425-.48.637-.146-.236-.414-.47-.419-.709-.038-1.743.019-3.489-.037-5.232a2.643,2.643,0,0,0-2.551-2.8,2.876,2.876,0,0,0-3.015,2.493,6.019,6.019,0,0,0-.075.742c-.012.217,0,.436,0,.654,0,1.308.031,2.618-.023,3.924-.013.317-.306.622-.47.932a2.655,2.655,0,0,1-.407-.891c-.046-1.275-.014-2.553-.023-3.83,0-.466-.023-.934-.07-1.4A2.612,2.612,0,0,0,19.4-157.1a2.811,2.811,0,0,0-3.045,1.82,5.992,5.992,0,0,0-.341,1.91c-.049,1.431,0,2.866-.035,4.3-.006.236-.264.465-.405.7-.159-.22-.453-.439-.456-.661q-.048-4.064,0-8.129c0-.217.308-.429.472-.644a3.109,3.109,0,0,1,.394.626A3.141,3.141,0,0,1,16-156.36Zm78.494.566c.906-.66,1.751-1.306,2.633-1.9a1.4,1.4,0,0,1,.894-.191c.247.033.465.282.7.435-.175.183-.319.438-.533.533-.364.162-.794.175-1.16.334a3.974,3.974,0,0,0-2.461,3.572c-.1,1.269-.022,2.551-.092,3.824-.015.278-.32.54-.491.81-.134-.272-.38-.542-.383-.816q-.044-3.921,0-7.842c0-.262.278-.521.426-.782a2.642,2.642,0,0,1,.45.773A6.823,6.823,0,0,1,94.49-155.794Zm-50.06.118c.824-.676,1.522-1.327,2.3-1.857a2.779,2.779,0,0,1,1.329-.344c.19-.013.4.274.6.425a4.407,4.407,0,0,1-.436.529c-.079.072-.237.056-.358.084a3.845,3.845,0,0,0-3.3,3.557c-.158,1.352-.084,2.73-.162,4.094a2.489,2.489,0,0,1-.383.813c-.168-.275-.477-.547-.481-.824q-.055-3.917,0-7.836c0-.259.288-.515.443-.773a2.7,2.7,0,0,1,.42.782A8.586,8.586,0,0,1,44.43-155.676Zm70.171-1.247h-5.235a2.815,2.815,0,0,1-.743-.027c-.176-.049-.313-.236-.467-.362.161-.149.31-.407.485-.425a16.2,16.2,0,0,1,1.68-.03c1.558,0,3.117-.011,4.675.01a4,4,0,0,1,.864.2,2.989,2.989,0,0,1-.335.9c-1.845,2.235-3.716,4.449-5.578,6.669-.138.164-.262.34-.47.613a6.947,6.947,0,0,0,.763.095c1.589.007,3.18-.024,4.768.025a3.236,3.236,0,0,1,1.053.448,3.136,3.136,0,0,1-1.006.4c-2.025.038-4.051.03-6.077.007a3.751,3.751,0,0,1-.935-.26,3.589,3.589,0,0,1,.394-.9c1.647-1.994,3.32-3.967,4.984-5.948C113.755-155.9,114.087-156.3,114.6-156.923ZM12.419-148.6c-.2.076-.42.242-.6.205a1,1,0,0,1-.633-.406c-.414-.8-.792-1.623-1.126-2.46a1.018,1.018,0,0,0-1.1-.752q-2.987.054-5.975,0a1.008,1.008,0,0,0-1.113.742A14.9,14.9,0,0,1,.9-149.156c-.178.309-.571.495-.866.737A2.966,2.966,0,0,1,.071-149.5q2.342-5.189,4.763-10.342c.269-.571.3-1.59,1.168-1.44.449.078.873.854,1.131,1.4,1.6,3.374,3.146,6.771,4.708,10.162.13.281.24.571.359.857Zm73.665-4.869a10.063,10.063,0,0,0-2,.62,1.84,1.84,0,0,0-.33,3.062,3.449,3.449,0,0,0,3.778.339,2.771,2.771,0,0,0,1.775-2.789c0-.522-.122-.81-.686-.869C87.848-153.191,87.084-153.327,86.085-153.473Zm-20.251,2.435c2-1.945,1.878-5.812-.2-7.933a5.339,5.339,0,0,0-7.624.026,6.1,6.1,0,0,0,.15,8.368c1.938,1.865,5.319,2,6.959.226-.589-.5-1.209-.976-1.749-1.526a2.627,2.627,0,0,1-.363-.925c.349.053.779,0,1.031.181A23.793,23.793,0,0,1,65.833-151.038ZM5.972-160.2l-3.3,7.236h6.6Zm27.12,6.584h6.567a3.275,3.275,0,0,0-3.165-3.506A3.482,3.482,0,0,0,33.091-153.613Zm19.4-7.223c-.388.336-.618.687-.844.685-.2,0-.54-.4-.544-.627a.856.856,0,0,1,.507-.674C51.817-161.483,52.082-161.139,52.489-160.836Z" transform="translate(0 -460.957)"/>
  </g>
</svg>
